<svg viewBox="0 0 64 64" xmlns="http://www.w3.org/2000/svg">
  <!-- Background -->
  <rect width="64" height="64" fill="#007AFF" rx="12"/>

  <!-- Monster head simplified -->
  <circle cx="32" cy="22" r="14" fill="#FF6B6B"/>

  <!-- Eyes -->
  <circle cx="26" cy="18" r="3.5" fill="#FFFFFF"/>
  <circle cx="26" cy="18" r="1.5" fill="#000000"/>

  <circle cx="38" cy="18" r="3.5" fill="#FFFFFF"/>
  <circle cx="38" cy="18" r="1.5" fill="#000000"/>

  <!-- Smile -->
  <path d="M 26 25 Q 32 28 38 25" stroke="#000000" stroke-width="1.5" fill="none" stroke-linecap="round"/>

  <!-- Monster body -->
  <ellipse cx="32" cy="40" rx="14" ry="16" fill="#FF6B6B"/>

  <!-- Left horn -->
  <polygon points="22,10 20,2 24,9" fill="#FF4757"/>

  <!-- Right horn -->
  <polygon points="42,10 44,2 40,9" fill="#FF4757"/>

  <!-- Belly patch -->
  <ellipse cx="32" cy="42" rx="8" ry="10" fill="#FFB3BA" opacity="0.8"/>

  <!-- Left foot -->
  <ellipse cx="22" cy="54" rx="4" ry="6" fill="#FF6B6B"/>

  <!-- Right foot -->
  <ellipse cx="42" cy="54" rx="4" ry="6" fill="#FF6B6B"/>

  <!-- Happy star accent -->
  <path d="M 32 5 L 34 11 L 40 11 L 35 15 L 37 21 L 32 17 L 27 21 L 29 15 L 24 11 L 30 11 Z" fill="#FFD700" opacity="0.9"/>
</svg>
