<svg viewBox="0 0 200 200" xmlns="http://www.w3.org/2000/svg">
  <!-- Background circle -->
  <circle cx="100" cy="100" r="95" fill="#007AFF" opacity="0.1" stroke="#007AFF" stroke-width="2"/>

  <!-- Monster body -->
  <ellipse cx="100" cy="110" rx="45" ry="50" fill="#FF6B6B"/>

  <!-- Monster head -->
  <circle cx="100" cy="60" r="40" fill="#FF6B6B"/>

  <!-- Left eye -->
  <circle cx="85" cy="50" r="8" fill="#FFFFFF"/>
  <circle cx="85" cy="50" r="5" fill="#000000"/>
  <circle cx="87" cy="48" r="2" fill="#FFFFFF"/>

  <!-- Right eye -->
  <circle cx="115" cy="50" r="8" fill="#FFFFFF"/>
  <circle cx="115" cy="50" r="5" fill="#000000"/>
  <circle cx="117" cy="48" r="2" fill="#FFFFFF"/>

  <!-- Eyebrows (happy) -->
  <path d="M 75 40 Q 85 35 95 40" stroke="#000000" stroke-width="2" fill="none" stroke-linecap="round"/>
  <path d="M 105 40 Q 115 35 125 40" stroke="#000000" stroke-width="2" fill="none" stroke-linecap="round"/>

  <!-- Mouth (big smile) -->
  <path d="M 85 70 Q 100 80 115 70" stroke="#000000" stroke-width="2.5" fill="none" stroke-linecap="round"/>

  <!-- Tongue -->
  <ellipse cx="100" cy="83" rx="6" ry="8" fill="#FFB3BA"/>

  <!-- Left horn/spike -->
  <polygon points="70,25 65,5 75,20" fill="#FF4757"/>

  <!-- Right horn/spike -->
  <polygon points="130,25 135,5 125,20" fill="#FF4757"/>

  <!-- Left arm -->
  <rect x="50" y="100" width="20" height="40" rx="10" fill="#FF6B6B" transform="rotate(-25 60 100)"/>
  <circle cx="45" cy="135" r="8" fill="#FFB3BA"/>

  <!-- Right arm -->
  <rect x="130" y="100" width="20" height="40" rx="10" fill="#FF6B6B" transform="rotate(25 140 100)"/>
  <circle cx="155" cy="135" r="8" fill="#FFB3BA"/>

  <!-- Left foot -->
  <ellipse cx="75" cy="160" rx="12" ry="15" fill="#FF6B6B"/>
  <circle cx="70" cy="172" r="5" fill="#FFB3BA"/>
  <circle cx="80" cy="172" r="5" fill="#FFB3BA"/>

  <!-- Right foot -->
  <ellipse cx="125" cy="160" rx="12" ry="15" fill="#FF6B6B"/>
  <circle cx="120" cy="172" r="5" fill="#FFB3BA"/>
  <circle cx="130" cy="172" r="5" fill="#FFB3BA"/>

  <!-- Belly patch -->
  <ellipse cx="100" cy="120" rx="25" ry="30" fill="#FFB3BA" opacity="0.7"/>

  <!-- Stars around (happy vibe) -->
  <g fill="#FFD700">
    <!-- Top left star -->
    <path d="M 40 30 L 43 38 L 52 38 L 45 43 L 48 51 L 40 46 L 32 51 L 35 43 L 28 38 L 37 38 Z"/>
    <!-- Top right star -->
    <path d="M 160 30 L 163 38 L 172 38 L 165 43 L 168 51 L 160 46 L 152 51 L 155 43 L 148 38 L 157 38 Z"/>
    <!-- Bottom star -->
    <path d="M 100 175 L 103 183 L 112 183 L 105 188 L 108 196 L 100 191 L 92 196 L 95 188 L 88 183 L 97 183 Z"/>
  </g>

  <!-- Text below -->
  <text x="100" y="190" font-family="Arial, sans-serif" font-size="16" font-weight="bold" text-anchor="middle" fill="#007AFF">
    QUICKSELL
  </text>
</svg>
