<svg width="200" height="200" viewBox="0 0 200 200" fill="none" xmlns="http://www.w3.org/2000/svg">
  <rect width="200" height="200" rx="40" fill="#DC2626"/>
  <rect x="60" y="60" width="80" height="80" rx="8" fill="white"/>
  <rect x="68" y="68" width="12" height="12" fill="#DC2626"/>
  <rect x="68" y="88" width="12" height="12" fill="#DC2626"/>
  <rect x="88" y="68" width="12" height="12" fill="#DC2626"/>
  <rect x="108" y="68" width="12" height="12" fill="#DC2626"/>
  <rect x="128" y="68" width="12" height="12" fill="#DC2626"/>
  <rect x="88" y="88" width="12" height="12" fill="#DC2626"/>
  <rect x="128" y="88" width="12" height="12" fill="#DC2626"/>
  <rect x="68" y="108" width="12" height="12" fill="#DC2626"/>
  <rect x="108" y="108" width="12" height="12" fill="#DC2626"/>
  <rect x="128" y="108" width="12" height="12" fill="#DC2626"/>
  <rect x="68" y="128" width="12" height="12" fill="#DC2626"/>
  <rect x="88" y="128" width="12" height="12" fill="#DC2626"/>
  <rect x="108" y="128" width="12" height="12" fill="#DC2626"/>
  <rect x="128" y="128" width="12" height="12" fill="#DC2626"/>
  <text x="100" y="175" font-family="Arial, sans-serif" font-size="20" font-weight="bold" fill="white" text-anchor="middle">MenuQR</text>
</svg>
